<svg version="1" xmlns="http://www.w3.org/2000/svg" width="1333.333" height="1333.333" viewBox="0 0 1000.000000 1000.000000"><path d="M468 60.3c-31.8 2-67.7 8.6-98 18.1-33.5 10.4-40.6 13.2-66 25.3-19.4 9.3-33.9 17.5-50.5 28.6-27.3 18.3-39.9 28.2-56.9 44.7-34.4 33.4-60.7 68.3-79.5 105.6-5.3 10.5-14.1 35.7-16.2 46.2-1.8 9.5-.8 23.9 2.1 29l2.4 4.2-2.5 2.6c-1.3 1.4-4.6 3.7-7.4 5.1-16.6 8.5-33.6 22.9-38 32.4-3.3 7.2-3.3 14.3-.1 20.7 3 5.7 6.7 8.7 17.4 14.1l8.1 4.1-3.4 5.2c-3.4 5.1-3.9 6.8-3.5 11.6.1 1.4-1.4 4-4 6.9-8.1 9.3-15.4 28.5-13.6 35.8.4 1.4 1.7 3 3.1 3.5 1.6.6 2.7 2.2 3.4 4.7 1.4 5 6.4 12.8 9.1 14.3 1.2.7 5.2 1.9 8.8 2.8 6.5 1.7 6.7 1.8 6.4 4.7-.2 1.7.1 4.2.6 5.5.8 2.2.3 3.2-5.1 8.9-8.3 9-10.7 14.4-10.1 23.3.2 3.9 1.1 8.3 1.9 9.8.8 1.6 1.5 3.1 1.5 3.4 0 .3-4.7.2-10.5-.1l-10.5-.6v3.5c0 6.3 4.5 13.1 15.2 23.2l9.9 9.4-11 .4c-6.6.2-11.5.8-12.2 1.5-1.6 1.6.4 7.3 3.6 10.3 1.4 1.3 2.5 2.6 2.5 2.9 0 .4-1.9.5-4.3.3-2.3-.2-5.5.2-7.2.8l-3 1.2 5.5 4.9c7.2 6.5 16.6 13.2 20.9 14.9 3.2 1.3 3.2 1.4 1.5 2.7-1.8 1.4-1.5 1.8 4.3 7.3 3.5 3.3 8.6 7.5 11.5 9.5 6.2 4.1 5.1 4.5-2.8 1-6.6-2.9-6.4-2.9-6.4-1.3 0 2.7 9.1 12.7 13 14.4 2.2 1 4 2.5 4 3.3 0 2.5 4.8 12 8.1 16.2 1.7 2.2 4.4 4.6 6 5.5 1.6.8 2.9 2.3 2.9 3.3 0 2.8 11.4 25.3 14.8 29.2 1.6 1.9 6.6 8.6 11.2 14.9 32.5 45.3 72.9 82 120.4 109.4 29.9 17.3 58.1 29.6 101.1 44.3 24.8 8.4 68.7 18.2 91.5 20.4 6.3.6 15.8 1.5 21 2.1 5.2.6 15.8 1 23.5.9 42.7-.5 53.9-1 64.5-2.5 13.7-2.1 46.8-8.8 56.2-11.5 3.7-1.1 7-1.6 7.3-1.1 1.3 2.1-10.1 26-12.5 26-1 0-3.4 6.9-2.7 7.7.6.6 3.4-1.3 13.7-9.1 8.6-6.6 18.7-11.1 31.2-14.1 21-5 37.5-5.1 48-.3 8.5 4 20.1 14 27.3 23.8 6.6 8.9 9.2 11.1 10.1 8.7.7-1.9-2-7.7-7.5-16.1-5.3-8.2-9.9-19.8-13.7-34.6-2.9-11.2-5.1-28.7-3.8-30 .5-.5 8.1-5.2 16.8-10.4 67.3-40.6 122.5-98.7 160-168.2 19-35.2 33.3-72.9 41.5-109 7-30.6 9.1-51.1 9.1-86.6 0-75.2-6.8-114.5-29.7-172.2-14.5-36.7-32.3-68.4-56.5-100.5-4.3-5.7-7.8-10.7-7.8-11.1 0-1.5 16.7-15.9 23.6-20.3 4.9-3.2 9.5-5.2 15.3-6.6 4.5-1.1 8.9-2.4 9.7-2.9 3.3-1.8-2.6-4-19.6-7.1-14.7-2.8-28.6-11-43.3-25.4-15.2-15.1-23-28.7-30-52.4-7.4-24.9-9.7-33.1-9.7-35.1 0-2.4-3-11.2-3.9-11.2-.3 0-1.2.9-1.9 2-.9 1.6-.9 3.3.4 8.7 4.7 20.1 5.8 36.8 3.3 50.8-2 11.3-9.1 32.5-10.9 32.5-.4 0-3.2-2-6.2-4.3-9.1-7.5-30.7-22.3-44-30.2-38.9-23.3-80.4-40.6-121.3-50.5-28.6-6.9-60.6-12-76-12-4.6 0-9.6-.5-11.2-1.2-3.4-1.4-40.9-1.7-60.3-.5zm44.4 5.7h10.9l-.8 141.7c-.4 78-.9 142-1.1 142.2-1.2 1.2-35.7 2.1-108.9 2.6-78.1.6-130.7 1.5-199.5 3.5-17.9.5-44.6 1.2-59.5 1.5-14.8.2-30.4.7-34.5 1.1-8.6.7-9.7 0-12.1-7.1-3-9.2-.8-24.1 6.7-45.6 13.4-38.7 46.1-85.4 87.5-125.3 37.9-36.6 99.4-73.7 148.4-89.7 30.7-10.1 46.7-14.6 55.9-15.9 3.9-.6 10.3-1.7 14.1-2.5 15.1-3.2 36.8-5.5 56.4-6 11.3-.3 20.7-.8 21-1.1.3-.3 1.5-.3 2.6 0s6.9.6 12.9.6zm30.6.5c8 .8 19.8 2.2 26.3 3.2 11.1 1.6 11.7 1.8 11.7 4.1v2.3l-27.2-.3-27.3-.3-.3-5.3c-.2-3.8.1-5.2 1-5.2.7 0 7.8.7 15.8 1.5zm52.5 7.9l6 1.4-8.7.1c-6.7.1-8.8-.2-8.8-1.2 0-2 1.1-2.7 3.4-2.2 1.2.3 4.8 1.1 8.1 1.9zm-14.4 9.8c.1 2.4.1 11.3 0 19.8v15.5l-23.3.3c-12.8.1-25.2 0-27.5-.3l-4.3-.6V80h55l.1 4.2zm51.7-.4c7.6 2.2 12.6 4.1 13 5.1.5.9.6 8.4.4 16.7l-.4 15.2-29.6-.5c-16.4-.2-30.2-.6-30.9-.8-.8-.3-1.2-5.9-1.3-20l-.1-19.6 18.3.2c17.7.1 18.7.2 30.6 3.7zm27.7 9.8c3.3 1.2 5.5 2.3 5 2.3-.6.1-3.5-.8-6.5-1.9-7-2.5-7-2.5-7 .8 0 2.3 1.4 3.8 8.7 9.2 4.8 3.6 10.9 8.4 13.6 10.7 4.7 4.2 4.9 4.3 12.2 4.3h7.5v-10.1l-7-3.1c-3.9-1.7-6.8-3.3-6.6-3.5.2-.3 3.6 1 7.5 2.8l7.1 3.2v11.6l-8.7.3c-4.9.2-14.9.1-22.5 0l-13.6-.4-.4-5.1c-.2-2.9-.2-9.6.1-15 .4-11.1-.7-10.5 10.6-6.1zm50.4 27.2c-5 .1-9.3.1-9.4 0-.1-.2-.5-2.7-.9-5.6l-.7-5.3 10.1 5.3 10.1 5.3-9.2.3zm-142.6 3.1l12.7.1v28.8l-4.9.4c-2.7.1-15.1.2-27.5 0l-22.6-.3v-29.6l14.8.2c8.1.2 20.4.4 27.5.4zm68 .8l9.7.6v28.8l-23.2-.1c-12.8-.1-26.7-.3-30.8-.7l-7.5-.5-.1-14.4-.2-14.5 21.2.1c11.6 0 25.5.3 30.9.7zm42.5.3h17.3l-.3 14.6-.3 14.5-12.5.1c-6.9 0-17.3 0-23.2-.1L649 154v-28.9l4.3-.4c2.3-.2 5.1-.2 6.2-.1 1.1.2 9.8.4 19.3.4zm53.5 2.6c1.8.9 8.7 5.3 15.5 9.8l12.2 8.1v9.6l-29.4-.3-29.4-.3-.4-12.5c-.5-18.5-2.1-16.8 14.4-16.3 10.3.2 14.8.8 17.1 1.9zm75.7 7.1c9.2 21.4 30.8 45.1 50 54.8 3 1.6 8.6 3.8 12.5 5.1 3.8 1.2 7 2.6 7.2 3 .1.5-2.3 2.4-5.3 4.3-7.8 4.7-23.2 19.7-29.2 28.5-7.9 11.4-14.5 25.7-20.2 43.9-.7 2.1-1.5 3.6-1.8 3.3-.3-.3-1.8-3.5-3.3-7.1-4-9.5-10.9-18.6-18.5-24.3-16.4-12.3-46-24.2-60-24.2-4 0-4.5-1.6-.9-3 4.3-1.7 16.5-11.8 28-23.5 18.8-19 30.7-40.1 35.5-62.9.6-3.1 1.5-5.6 1.9-5.6.4 0 2.2 3.5 4.1 7.7zm-38 18.2l2.5 2-4.2.1c-4.2 0-4.3 0-4.3-3.5 0-3.2.1-3.4 1.8-2 .9.7 2.8 2.3 4.2 3.4zM572.3 157h8.7v55.1l-24.2-.2c-13.4 0-25.8-.3-27.5-.6l-3.3-.5v-54.5l18.8.3c10.3.2 22.6.4 27.5.4zm73.5 28.2l.2 27.8h-16.7c-9.3 0-23.2-.3-31-.7l-14.3-.6V157l30.8.2 30.7.3.3 27.7zm50 .3l-.2 27.5-23.1-.2-23-.3V158H696l-.2 27.5zm57.5-26.5h6.7v35.1l-2.7 2.6c-6 5.6-16.3 14.2-18.3 15.3-1.9 1-8.1 1.2-32.7 1h-6.2l.4-27.3c.1-14.9.3-27.3.4-27.4 0-.1 10.3 0 22.9.2 12.5.2 25.7.4 29.5.5zm28.1 2.4l2.9 2.4-4.4 6.3c-2.4 3.5-5.4 7.5-6.7 8.9-1.2 1.4-2.5 3.2-2.8 4-.3.8-1.8 2.5-3.5 3.8l-2.9 2.4v-14.5c0-7.9.3-14.7.7-15 .3-.4 3.6-.7 7.2-.7 5.4.1 7.1.5 9.5 2.4zM558.2 216H581l-.2 21.1-.3 21.1-6 .1c-3.3.1-15.6 0-27.2-.1L526 258v-43.3l4.6.7c2.6.3 15 .6 27.6.6zm82 1h5.6l.1 13.2c0 7.3-.2 16.8-.5 21l-.6 7.8h-28.2c-15.4 0-29.1-.3-30.4-.6l-2.3-.6.1-21 .1-20.9 25.2.5c13.9.3 27.7.6 30.9.6zm45.8.6l9.6.7-.2 19.9c-.1 11-.4 20.1-.6 20.3-.4.4-15.1.7-34.1.6l-11.8-.1.2-20.3c.1-11.1.4-20.5.6-21 .5-.9 23.2-.9 36.3-.1zm33.5.4l9 .1-4.5 1.9c-2.5 1-5.5 1.9-6.7 1.9-3.2.1-8.3 3.3-8.3 5.3 0 2.3 4.6 3.1 14.4 2.3 9-.7 22.4.7 30.3 3l5 1.5.7 5.4c.3 3 .3 8.8-.1 13l-.6 7.7-29-.3-29-.3V244c0-27.1-.1-25.8 3.1-26.3 1.5-.2 3.6-.3 4.7-.1 1.1.2 6.1.4 11 .4zm138.2 22.8c12.6 17.1 16.4 22.5 15.9 23-.3.3-.8-.3-1.2-1.2-.5-1.3-2.4-1.6-12-1.6H849v-14c0-11.5.3-14 1.4-14 .8 0 4.1 3.5 7.3 7.8zm-82.1.4c9.5 4.7 21.4 12.8 26.9 18.1 1.8 1.8 1.8 1.9.2 1.3-1-.3-10.2-.6-20.3-.6H764v-12c0-6.6.2-12 .5-12s5.3 2.4 11.1 5.2zm69.8 8.7l-.7 11.1h-4.9c-4.2 0-4.9-.3-4.4-1.6 1.4-3.7 10.1-21.2 10.4-20.9.2.2 0 5.3-.4 11.4zM581 292.4c0 16.8-.3 30.6-.7 30.8-.5.2-12.8.2-27.5 0l-26.7-.3-.3-27.7c-.2-15.2-.1-28.9.1-30.5l.3-2.7H581v30.4zm63.5-29c.6.2 1 11.2 1 30.5V324l-24-.4c-13.2-.2-27-.5-30.7-.5l-6.8-.1v-60.7l29.8.4c16.3.3 30.2.6 30.7.7zm50.3 1.1c.2.2.5 13.7.5 29.9l.2 29.6-23-.2-23-.3-.3-29c-.1-15.9 0-29.6.3-30.4.4-1.1 4.3-1.2 22.8-.6 12.2.4 22.4.9 22.5 1zm64.4 3.4c.3 2 .4 10.8.2 19.6-.1 8.8-.3 20.8-.3 26.8L759 325l-23.7-.5c-13.1-.2-26.4-.4-29.5-.5H700v-60.1l29.4.2 29.4.1.4 3.7zm31.2-2.9h16.1l3.3 6.9 3.2 7V325h-49v-29.8c0-16.4.3-30.2.8-30.6.4-.4 2.7-.5 5.1-.2 2.4.3 11.6.6 20.5.6zm54.7 1.7c0 1 .1 14.5.2 30l.2 28.3H817v-3.8c0-2.4.3-3.2.9-2.4.5.8 1.7 1.2 2.6 1 2.4-.4 4.2-8.4 4.6-20.3.2-4.9.6-9.5 1-10 .3-.6 1.4-4.6 2.4-9 .9-4.4 2.1-8.5 2.5-9 .5-.6 1-1.9 1.2-3 .4-2.6 2.2-3.3 8.1-3.4 3.8-.1 4.7.2 4.8 1.6zm30.4 29.3l.1 30H849l-.1-5.3c-.1-7.6-.2-37.8 0-47.2l.1-8 13.2.2 13.3.2V296zm3-26c.3.5.1 1-.4 1-.6 0-1.1-.5-1.1-1 0-.6.2-1 .4-1 .3 0 .8.4 1.1 1zm4.9 9.5c4.4 7 23.6 44 23.6 45.4 0 .3-6.5.7-14.5.8l-14.5.3v-27c0-14.9.2-27 .4-27s2.5 3.4 5 7.5zm-302.8 84v37.1l-27-.4c-14.9-.2-27.2-.5-27.4-.7-.2-.2-.5-44.1-.3-62.8l.1-10.7 27.3.2 27.2.3.1 37zm64.7-35.3c-.2.5-.3 17-.3 36.8v36h-16.8c-9.3 0-23-.3-30.5-.7l-13.7-.6V327l30.8.2c16.9.2 30.6.6 30.5 1zm44.3-.5l6.1.5-.4 35.7c-.2 19.6-.5 36.2-.8 36.9-.4 1-5.1 1.1-22.7.7l-22.3-.6-.3-37-.2-37 17.2.1c9.5.1 20 .4 23.4.7zm69.4 1.6v72.8l-29.2-.3-29.3-.3-.3-36.8-.2-36.9 29.5.5c16.2.2 29.5.7 29.5 1zm53.5 36.5v36.3h-36.7L764 402v-73l24.3.2 24.2.3v36.3zm28.6-36.2l4.4.6-.2 25.2c-.1 13.8-.2 30.2-.2 36.3L845 403h-28l-.1-7.3c-.1-5.5 0-59 .1-65.5 0-1.3 15.8-1.7 24.1-.6zm33.9 36.9V403h-26.8l.4-32.3c.2-17.7.3-34.1.4-36.5V330h26v36.5zm33.8-.1l-.3 36.3-8.1.5c-4.4.3-11.3.3-15.2 0l-7.2-.5-.1-7.1c-.1-3.9-.2-20.3-.3-36.3l-.1-29.3h31.6l-.3 36.4zm12.1-5.4c3.9 11.2 9.9 31.6 11 37.3 1 5.7.8 5.8-11.3 5l-9.3-.6-.1-34.1-.1-34.1 3.4 9c1.9 4.9 4.8 12.8 6.4 17.5zm-399.5.3c0 .9-.1 20.5-.2 43.5l-.2 41.8-3.1 1.8c-3.1 1.8-3.1 1.8-5.8-.8-3-2.9-5.1-8.4-5.1-13.4 0-7.6-2.7-8.1-9-1.7-3.9 4-4.9 4.5-8.8 4.5-3.4 0-4.9-.6-7.2-2.8-4.9-5-6-12.3-3.8-26.5 1-6.8 1-8-.4-9.4-1.5-1.5-2.6-1.3-13 1.6-13.5 3.9-17.7 6.1-24.5 13.4-11.3 12-10.2 23.3 4.1 38.4 8.4 9 9 10.2 6.7 13.9-3 4.8-7.3 8.6-12.8 11.1-9.4 4.3-10.7 4.2-23.3-2.2-10.8-5.6-11.4-6-15.5-12.4-6.5-10.1-9.2-16.9-8.7-21.4.4-3.6.1-4.2-4.7-8.7-5.5-5.1-13.3-9.6-15.1-8.5-2.5 1.6-.7 4.7 6 10 3.9 3.1 7 6.1 7 6.8 0 .7-1.6 3.5-3.6 6.2-4.7 6.6-8 13.2-9.5 18.9-1.1 4.3-.9 5.1 1.4 9.6l2.6 5-4.7 2.4c-2.6 1.3-6.5 2.9-8.6 3.6-3.5 1.1-4.1 1.1-5.3-.6-1.6-2.2-1.7-6.7-.1-15 1.5-8.4.7-9.4-7.7-9.4-7 0-14.8-2-17.6-4.6-4-3.6-1.1-10.5 7.9-18.6 5.4-4.9 9.6-6.9 15.7-7.7 4.5-.5 5-.9 5.3-3.3.3-2.1-.7-3.7-4-7.1-6.4-6.4-13.2-8.1-32.3-8.1-17.6-.1-24.5 1.5-30.3 6.8-3.2 3-3.6 3.9-3.6 8.3 0 5.6 4.1 15.1 12.5 29.1 7.4 12.2 13.8 30.6 12.5 35.8-2.1 8.3-17.4 13-27.8 8.5-8.3-3.5-16-15.7-21.8-34.6-1.7-5.5-3.8-11.3-4.5-12.8-.8-1.6-1.5-3.9-1.5-5.2 0-8-4.9-10.8-19-10.9-10.6 0-15.6 1.3-19 4.9-2.2 2.3-2.2 2.7-.8 4.1 1.3 1.3 2.4 1.4 7.6.4 7.6-1.5 22-1 23.1.8 2.1 3.5-4.5 22.6-9.5 27.3-2.2 2.1-2.7 2.1-6.5 1-8.2-2.5-14.7-6.3-28.4-16.6-7.6-5.8-14.5-10.5-15.3-10.5-1.9 0-11-6.7-12.3-9.1-1.3-2.4 0-4.8 5.9-11.1 2.5-2.7 4.2-5.1 3.9-5.4-2.4-2.4-13 6-15.7 12.5-1.2 3.1-1.2 3.7.6 7 1.8 3.4 5.8 6.7 24.8 20.5 7.6 5.5 12.2 11.2 13.2 16.3 1.2 6.2-.3 6.7-17.6 6.4l-15-.2-5.8 3.9c-4.5 3.2-8.1 4.6-16.7 6.7-13 3.1-29.9 4.4-34.4 2.6-3.6-1.5-8-7.6-9.2-12.8-3.6-15.8 3.9-41.1 17.7-59.2 5.1-6.6 5.5-7.5 4.1-8.9-1.4-1.4-1.8-1.3-4.1.1-1.4 1-4.8 4.7-7.6 8.3-5.5 7.4-17.6 18.4-22.8 21-5 2.4-7.4 1.3-9.9-4.6-1.2-2.7-3-5.3-4-5.8-1.1-.4-4.5-2.3-7.6-4.2-5.3-3.2-7-5-4.8-5 .5 0 1.3-.9 1.6-2 .3-1.1 1.3-2 2.1-2s1.4-.7 1.4-1.5.7-1.5 1.6-1.5c1.9 0 8-4.9 7.7-6.2-.2-.4.4-.8 1.2-.8.8 0 1.5-.4 1.5-.9s1.1-1.2 2.4-1.5c1.5-.4 4-2.9 6.3-6.1 2.1-3 4.2-5.5 4.7-5.5s2.3-1.5 4-3.3c1.7-1.8 5.5-4.9 8.4-7.1 2.8-2.1 5-4.2 4.6-4.7-.3-.5.2-.9 1-.9.9 0 1.6-.4 1.6-.9s1.8-1.8 4-3c2.2-1.1 4-1.9 4-1.6 0 .3.9-.3 2-1.3 1.2-.9 2.4-1.7 2.8-1.7.9.1 6.2-5.7 6.2-6.6 0-.4-.6-.9-1.2-1.2-.7-.3 7-.5 17.2-.6 16.6-.1 36.8-.6 61-1.6 4.7-.2 30.8-.8 58-1.5 27.2-.6 57.2-1.3 66.5-1.6 9.4-.3 18.4-.5 20-.4 1.7 0 18 .3 36.4.5 18.4.3 34.3.7 35.3 1.1 1.1.3 3.2.1 4.6-.4 1.5-.6 12.6-1.3 24.7-1.6 21.9-.6 47.8-1.7 48.3-2.1.1-.1 1.9.1 4 .4 2.7.5 3.7 1.1 3.6 2.4zm46.6 42.6l12.5.1-.2 37.7c-.2 20.8-.3 38.3-.3 38.9 0 .8-7.6 1-26.7.7-14.7-.2-27-.6-27.2-.9-.3-.3-.4-75.5-.1-77.1 0-.1 6.6 0 14.8.1 8.1.2 20.3.4 27.2.5zm76.5 1.1c.6.5.9 14.1.7 38.9L645 482h-30.5c-16.8 0-30.5-.3-30.5-.8-.1-1.5-.1-31.6-.1-54l.1-23.3 29.7.1c16.4.1 30.2.5 30.8 1zm30.3 0H695l-.2 38.7-.3 38.8H649v-38.6c0-21.2.3-38.9.7-39.3.4-.4 1.7-.5 2.8-.2 1.1.3 11.1.6 22.3.6zm84 1c.1 0 .2 17.3.2 38.4v38.4l-2.2.3c-1.3.2-14.6.3-29.5.1l-27.3-.3v-78.1l29.3.6c16 .3 29.3.6 29.5.6zm51.9.6l2.3.6-.3 38.2-.2 38.1-23.9-.3c-13.2-.1-24.1-.4-24.3-.6-.4-.4-.6-33.6-.4-61.9l.1-14.7h22.3c12.2 0 23.2.3 24.4.6zm58.1.4h6.2v76.8l-9.4.4c-5.1.2-11.2.2-13.5 0l-4.1-.4V407.1l5.3-.4c2.8-.2 6.1-.2 7.2 0 1.1.1 4.8.3 8.3.3zm-24 38.3l-.2 38.4-13.7-.1-13.8-.1-.3-8c-.2-4.4-.2-21.6 0-38.3l.3-30.2h28l-.3 38.3zm59-37.6l4.2.5v75.6l-8.7.4c-4.9.2-11.6.2-15 0l-6.2-.4-.3-8.7c-.2-4.7-.2-22 0-38.3l.3-29.7h10.7c5.9 0 12.6.3 15 .6zm30.1.9c2.6 2.9 9.1 51.7 9.1 68.5v7.9h-32v-77.5l11.1.1c6 .1 11.4.5 11.8 1zm-615.6 42.1c-.7.2-2.1.2-3 0-1-.3-.4-.5 1.2-.5 1.7 0 2.4.2 1.8.5zm158.9 6.3c5.3 2.2 10.7 4.1 12 4.1 1.7.1 1.8.3.6.6-1 .2-1.9 1.2-2 2.1 0 .9-.2 2.3-.2 3.1-.2 2.6-12 1.4-19.1-1.8-5.1-2.4-6.7-3.7-9.4-8.1l-3.3-5.3 5.9.6c3.3.4 9.9 2.3 15.5 4.7zm43.6 15.1c-.5 3.3-15.4 7.5-33.3 9.5-5.9.6-5.9.6-3 1.8l3 1.3-3.6.6c-8.8 1.7-35.9.6-35.9-1.5 0-.5.5-.6 1-.3.6.3 1-.1 1-.9 0-2.8.1-3.1 1.9-5.1 1-1.1 2.2-3.1 2.6-4.3.5-1.9 1.1-2.2 2.8-1.7 12.7 4.1 39.3 4.4 53.7.6 9.7-2.5 10.2-2.5 9.8 0zm-175.5 6.3c.9.7 1.7 1.5 1.7 1.8 0 1.5-18.6 12.6-23.7 14.2-2.2.7-2.3.4-2.3-3.7v-4.5l5.8-2.1c3.1-1.2 7.7-3.3 10.2-4.6 5.2-2.8 5.9-2.9 8.3-1.1zm-93.5 5c2.6 1.3 7.3 3.2 10.5 4.2 5.2 1.6 8.8 4.6 7.3 6.1-.7.7-9.8-2.4-18.8-6.4-5.3-2.5-7.5-3.9-7.1-4.9.7-2 2.7-1.7 8.1 1zm327 2.4c.9.3 1.2 6.6 1.2 26.8v26.5l-15.7-.2c-8.7 0-21-.3-27.3-.6l-11.5-.5v-52.9l26 .2c14.3.1 26.6.4 27.3.7zm56 .1l10.2.1-.2 26.7-.3 26.8-30-.3c-16.4-.1-30.1-.4-30.2-.6-.6-.6-.7-7.2-.5-30.8l.2-22.7 20.3.4c11.1.2 24.8.4 30.5.4zM695 513v27h-45.8l-.3-3.8c-.2-2-.3-14.2-.1-27l.4-23.2H695v27zm62.8-25.5c1 .3 1.2 6.2 1 26.7l-.3 26.2-28.9-.2c-16-.2-29.1-.4-29.3-.6-.5-.5-.4-51.7.1-52.5.5-.7 55.4-.3 57.4.4zm54.1 1.1c.7.7.9 35.5.3 45.2l-.5 7.2-24.1-.2-24.1-.3v-53.4l23.9.5c13.2.2 24.2.7 24.5 1zm33.1 25.9V541h-28.6v-53H845v26.5zm29.5.5v26.5l-13-.1-13-.1-.3-26.6-.2-26.6 13.2.2 13.3.2V515zm32.3-26c.9 0 1.2 6 1.2 26.5V542h-30.9l.1-26.3c0-14.4.2-26.4.3-26.7.2-.3 6.5-.4 14.2-.3 7.6.2 14.4.3 15.1.3zm-686.1 3c1.8 1.6 3 3 2.5 3-1.4 0 1.6 8.3 3.5 9.7 1.4 1.1.9 1.3-3.3 1.3-5.4 0-12.9-2-17.3-4.6l-2.8-1.6 2.4-2.7 2.5-2.6-2.4-.6c-1.9-.5-1.6-.7 1.9-1.3 2.2-.4 4.9-1.4 6-2.1 2.5-2 3.1-1.9 7 1.5zm722.7 11.5c-.3 7.7-.7 19.5-1 26.2l-.6 12.3H911v-52.9l16.4.2 16.4.2-.4 14zm-745.6.8c15.2 8.8 25.9 9.9 50.3 5 1.5-.3 3.7.1 5 .7 2.2 1.2 2.2 1.3-2.3 3.1-6 2.3-18.5 4.9-24.5 5-4.4.1-4.6.1-2 1.1 1.6.6 2.7 1.7 2.7 2.9 0 1.4.7 1.9 2.8 2l2.7.1-3 .8c-7.6 1.9-23.6-.1-32-4-3-1.4-3.3-1.8-1.2-1.3 2 .4 2.7.1 2.7-1 0-2.5 1.1-2.6 7.5-1.1 3.3.7 7.4 1.3 9 1.2l3-.1-3-.4c-15.9-2.2-26.5-8.4-34.7-20.2-2.9-4.2-3-4.5-1.3-5.7 1.6-1.2 2.4-.7 7.2 3.6 3 2.8 8 6.5 11.1 8.3zm254.4-9.8c3.2.4 11.5.7 18.5.7 7.1 0 12.1.3 11.3.6-3.7 1.3-7 4.8-9.7 10.2-.4.8-1.6 2.3-2.8 3.3-1.8 1.6-3.4 1.7-14.4 1.2-12.6-.6-15.4-1.1-13-2.5.7-.5 1.8-3.4 2.4-6.7l1.2-5.8-4.1-1.2-4.1-1.2 4.5.4c2.5.2 7.1.7 10.2 1zm-66.2 7.9c1.4.7 6.8 2.8 12 4.7 6.6 2.4 8.8 3.5 7.1 3.7-1.3.2-4.4-.4-6.8-1.3-4.3-1.7-4.8-1.7-10.4 0-7.2 2.2-12 1.6-17.7-2.5-2.3-1.6-4.5-3-4.8-3-.2 0-2.7 1.6-5.5 3.5-4.7 3.2-9.6 4.5-11.2 2.9-.4-.4 3.1-2.9 7.6-5.5l8.2-4.9 9.5.6c5.2.3 10.6 1.2 12 1.8zm-271.4 1.7c3.8 1.2 8.7 3 10.9 4.2l4 2-6.5 1.8c-7.7 2.2-10.5 1.8-16-2.2-6.1-4.4-8.6-4.6-17.1-1-9.1 3.8-12.1 3.9-14.8.5-1.1-1.5-1.9-3-1.6-3.4.2-.4 4.8-1 10.2-1.4 5.4-.4 12.3-1.1 15.3-1.5 8.4-1.2 8.3-1.2 15.6 1zm-9.5 11.4c6.7 4.6 9.8 5 19.9 2.6 12.2-3 14.9-2.8 19.6 1.4l3.9 3.4-16.6.1c-18.1 0-38.7-1.3-48.9-3.2l-6.5-1.1 5.5-1.2c3-.7 7.5-2.2 10-3.3 6-2.9 7.2-2.8 13.1 1.3zm273.8 3.3c3.1.3 6.7-.2 10-1.3 4.8-1.6 5.4-1.6 9.6 0 6.1 2.4 12.8 1.6 16.3-1.9 2.7-2.5 2.8-2.5 8.1-1.1 2.9.7 5.5 1.6 5.8 1.9 2.2 2.2-8 7.3-19.3 9.7-14.8 3.2-33.4 3-53.2-.5-14.3-2.5-23.2-5-23.2-6.5.1-.8 6.6-5.6 7.6-5.5.5 0 3 1 5.6 2.3 5.3 2.4 9.3 2 15.3-1.7 2.9-1.8 3-1.8 7.7 1.1 3 1.9 6.6 3.2 9.7 3.5zm141.5-3.1c-.1 1.5-.3 3.1-.3 3.4-.3 1.9-28.2 4.9-38.9 4.1-3.8-.3-4.3-.6-4-2.5.2-1.7 1-2.2 3.7-2.4 7.9-.4 24.1-2.6 31.1-4.2 4.1-1 7.7-1.7 8-1.5.3.1.5 1.5.4 3.1zm-62.5 3.2c13.9.6 15.8 1.3 12.5 4.6-1.5 1.4-2.7 1.6-8.8.8-3.9-.4-12.1-.8-18.1-.8h-11l1.5-3.3c1.5-3.3 1.6-3.3 6-2.6 2.5.4 10.5 1 17.9 1.3zm-134.9-.5c0 .3-.4.8-1 1.1-.5.3-1 .1-1-.4 0-.6.5-1.1 1-1.1.6 0 1 .2 1 .4zm7.1 6.2c2.1 1.9 17.5 7.4 20.9 7.4 3.4 0 5.2 1.3 4.5 3.2-.5 1.2-3.5 1.7-15 2.2-7.9.4-16 .5-17.9.2-2-.3-5.2-.8-7.1-1.1-2.1-.4-3.5-1.2-3.5-2 0-1.3 13.3-11.1 15.4-11.4.5 0 1.7.6 2.7 1.5zm190.7 7l.3 4.7-3.2-.7c-1.7-.3-10.3-.6-19.1-.6-15.5 0-15.9 0-16.7-2.3l-.8-2.2 17.1-1.2c14.8-1.1 19.2-1.5 21.6-2.2.3 0 .6 2 .8 4.5zm-365-.9c-1 .2-2.6.2-3.5 0-1-.3-.2-.5 1.7-.5s2.7.2 1.8.5zm53.7.8c4.4.8 11.4 1.5 15.5 1.5 4.1.1 6.8.4 6 .8-.8.4-1.6 1.5-1.8 2.4-.2 1.5.5 1.8 4.5 1.9l4.8.2-5.5.7c-3 .5-12 .8-20 .7-8 0-12.5-.2-10-.4 5.3-.5 7.3-2 4.8-3.4-1-.6-1.8-1.6-1.8-2.3 0-.6-1.2-1.7-2.7-2.3-3.8-1.5-3-1.5 6.2.2zm250-.6c2.8.3 6.9.3 9.2-.1 4.8-.8 7.3-.2 7.3 1.8 0 1-4.9 1.4-25.2 1.6-13.9.2-25.7 0-26.2-.5-.6-.4-.4-.7.5-.8.7 0 6.1-.7 11.9-1.4 12.4-1.5 15.8-1.6 22.5-.6zm51.3 11.7c5.6.3 10.2.9 10.2 1.3s-2.4 1.5-5.2 2.3c-26 7.5-74.7 24.4-106.5 37-18.1 7.1-46.1 20.9-67.6 33.2-14 8-19.8 11.7-40.9 25.8-4.8 3.2-9.3 5.8-10 5.7-.7 0-3.8-2.9-6.8-6.5-8-9.4-38-38.8-48.5-47.5-21.4-17.6-42.3-31.7-61.4-41.2l-10.4-5.2 53.4-.6c54.3-.6 106.7-1.6 123.9-2.4 21.5-.9 72.4-2.6 85.5-2.8 22.1-.3 73 .2 84.3.9zm49 .4H580l-.2 34.7-.3 34.8-13-.2c-7.1 0-19.4-.2-27.3-.2L525 612l.1-34.3c.1-18.8.4-34.6.7-35.1.2-.5 3.5-.6 7.1-.2 3.6.3 15.7.6 26.9.6zm81 .7l4.2.5V613h-61.7l.2-30.3c.1-16.6.3-32.4.4-35l.1-4.8 26.3.1c14.4.1 28.1.5 30.5.7zm53.7 35.3v34.5l-19.5-.2c-10.7-.2-21.1-.3-23-.3h-3.5l.2-28.2c.2-15.6.3-31.1.3-34.6V544l22.8.2 22.7.3V579zm48.7-34H759v34.3c0 18.9-.2 34.6-.4 34.8-.2.2-13.6.2-29.8-.1l-29.3-.5V587c-.1-14.6.1-30.3.4-34.9l.4-8.4 13.5.7c7.4.3 20.6.6 29.4.6zm-647.5.6c-.3.3-1.2.4-1.9.1-.8-.3-.5-.6.6-.6 1.1-.1 1.7.2 1.3.5zM812 580v34l-8.7.1c-15.9.1-38.8-.2-39.1-.6-.2-.2-.4-15.4-.5-33.9l-.2-33.5 8.5-.3c4.7-.2 15.6-.2 24.3 0l15.7.3V580zm20.8-34H845l-.2 34.2-.3 34.3h-28l-.3-34.9-.2-34.8 2.2.6c1.3.3 7.8.6 14.6.6zm-704.7 7c.3 3.6 1 8.2 1.4 10.2.6 3.1.4 3.8-.9 3.8-.9 0-1.6-.4-1.6-.9s-1.9-1.1-4.2-1.5c-7.2-1.1-11.7-2.8-12.3-4.5-.2-.9-1.9-2.2-3.6-3-1.7-.7-3.3-2.1-3.6-3-1.6-4.7-2.9-7.1-4.3-7.5-.8-.2 5.3-.4 13.5-.3l15 .2.6 6.5zm743.6-6.4l3 .6-.2 31.1c-.2 17.2-.3 32.4-.4 33.9l-.1 2.8h-26v-69h10.4c5.7 0 11.7.3 13.3.6zm27.9.4h8.2l-.3 33.5c-.1 18.4-.4 33.7-.6 33.9-.6.6-10.5 1-20.4.8l-9-.2v-67.9l3.5-.4c1.9-.3 5.1-.3 7-.1 1.9.2 7.2.4 11.6.4zm-733.8 8.1c15.6 7.3 36.3 20.2 52.3 32.6 5.3 4.1 5.7 4.8 6.3 9.6.9 6.5 5.6 20.7 9.6 28.9 1.7 3.5 2.4 5.4 1.5 4.4-.8-1.1-1.5-2.3-1.5-2.7 0-.4-5.2-3.3-11.5-6.5-6.3-3.1-11.5-6.1-11.5-6.5 0-.4-1-1.1-2.2-1.5-1.3-.4-3.8-2.1-5.6-3.8-1.8-1.7-3.8-3-4.3-2.8-.5.1-.9-.4-.9-1.2 0-1.3-4.3-2.8-8.5-2.9-1.1-.1-2.4-.7-2.8-1.4-.5-.7-1.2-1.1-1.7-.8-.5.3-1.1.1-1.5-.5-.4-.6-1.1-.8-1.6-.5-.5.4-.9.2-.9-.3 0-.4-2.9-2.4-6.5-4.2-3.6-1.9-7.4-4.2-8.5-5.2-1.1-1-2-1.6-2-1.3 0 .4-.7-.1-1.6-.9-.8-.9-2-1.4-2.5-1.1-.5.4-.9.1-.9-.4 0-.6-.7-1.1-1.5-1.1s-2.4-.9-3.5-2c-1.2-1.2-2-1.5-2-.8-.1 2.8-1.8-2-3.3-9.2-2-9.5-3.1-21.2-2.2-23.9.6-2 .8-2 4.8-.4 2.3.8 8.8 3.7 14.5 6.4zm774.8-6.9c1.3 1.4-5 36.5-10.2 56.5l-2.7 10.3H911V546.7l14.5.5c8 .3 14.8.7 15.1 1zM520 566.7c0 13.1-.2 14.5-1.5 12.7-.8-1-1.5-2.8-1.5-3.9 0-1.6-.2-1.7-.9-.6-.6.8-3 1.5-6.3 1.7-2.9.2-6.4.6-7.8.9-1.4.4-3.3.7-4.2.7-.9-.1-2 .8-2.3 1.8-.3 1-1.2 2.1-2 2.4-.8.3-1.5 1.6-1.6 2.8 0 2.3 0 2.3-1-.2-1.2-2.9-3.9-16.6-3.9-19.6 0-1.8 1.4-2.5 9.2-4.9 5-1.5 12.3-4.1 16.2-5.6 3.9-1.5 7.2-2.8 7.4-2.8.1-.1.2 6.5.2 14.6zm-44.7 7.3c.4 3.3.8 7.1 1 8.3.2 1.2.2 1.6 0 .9-.5-1.4-3.3-1.7-3.3-.3s-6.9 8.5-8.5 8.7c-2.2.3-6.5 3.2-6.5 4.3 0 .5-.8.8-1.7.7-1-.2-2.2.3-2.8 1-.5.7-2.2 1.5-3.7 1.8-1.5.2-3.3.8-4 1.2-.7.5-2.4.7-3.8.6-1.8-.2-3.6.8-6.5 3.9-2.2 2.4-3.9 4.8-3.7 5.5.3 1.4-3.3 2.9-4.7 2-.5-.4-1.3.4-1.7 1.6l-.7 2.2-1.2-2.5c-1.6-3.1-6.5-20.7-6.5-23.5 0-1.9 2.8-3.2 22.3-10.3 27.6-10.1 32.9-11.9 34.3-12 .6-.1 1.4 2.5 1.7 5.9zM81.2 588.3l1.7 2.2-7.7 1.2c-4.2.6-8.4 1.4-9.3 1.7-1.7.7-3.9-2.9-3.9-6.6 0-2 .3-2 8.8-1.4 7.3.6 9 1.1 10.4 2.9zm322.9 10.5c.6 2 3.1 8 5.4 13.3l4.2 9.6-4.3-.3c-3.5-.3-5 .2-7.4 2.2-1.6 1.4-3 2.2-3 1.7 0-.4-.7.1-1.6 1.2-.8 1.1-1.6 1.9-1.7 1.7-.3-.5-6.1 1.8-6.7 2.6-.5.7-7.9 4.5-9 4.6-.3.1-1 .5-1.6.9-.7.4-1.4-.2-1.8-1.6-.4-1.4-.9-1.8-1.3-1.1-.5.6-1.5 1.2-2.3 1.3-.8.1-2.6.3-4 .4-1.4.2-4.1 1.3-6 2.5-1.9 1.2-4.4 2.2-5.5 2.2-1.1 0-3.1.6-4.5 1.3-2.6 1.4-9 .3-9-1.5 0-.5-.4-.7-.8-.4-.7.4-3.7-13.4-3-13.9 5.2-3.9 60.7-31.7 61.9-30.9.4.2 1.3 2.1 2 4.2zm-315.7-1c1.6 1.8 1.4 1.9-3.5 2.1-3.2.1-4.8-.2-4.4-.9.3-.5-.2-1.1-1.2-1.1-1-.1-.4-.5 1.2-.9 4.9-1.2 6.1-1.1 7.9.8zm13.9 14.4c4.5 4 9.3 8 10.7 8.9 1.8 1.2.4 1-4.9-.7-4.1-1.3-10.4-2.7-14.1-3-6.2-.6-7.1-1-12.1-5.4l-5.4-4.8 3.5-1c1.9-.6 5.9-1.1 8.8-1.1 5.2-.1 5.5 0 13.5 7.1zm155.9 11.5c7.6 7.6 13.8 14.2 13.8 14.7 0 .6-.5.5-1.2-.2-.8-.8-1.7-.8-3.1-.1-1.4.8-2.7.8-4.4 0-1.3-.6-2.8-.9-3.2-.6-.5.2-1.6-.4-2.5-1.4-.9-1-3-2.1-4.6-2.5-2.7-.5-3.1-1.2-5.6-9.3-1.4-4.8-3-10-3.4-11.6-.5-1.5-.6-2.7-.2-2.7.4 0 6.9 6.2 14.4 13.7zm298.9-7.7H580v30h-55V614.7l4.6.7c2.6.3 15 .6 27.5.6zm70.2.9l17.8.1-.4 14.7-.5 14.8-16.9-.2c-9.2-.1-23-.2-30.6-.2l-13.8-.1.5-14.8c.3-8.1.5-14.8.6-15 0-.1 5.7-.1 12.8.2 7 .2 20.7.5 30.5.5zm58 .8l9.8.6-.3 14.1-.3 14.1-22.6.2-22.7.2-.6-3.7c-.3-2-.3-8.8.1-15l.6-11.2h13.1c7.2 0 17.5.3 22.9.7zm72.3.8c.8.2 1 4.7.8 14.1-.2 7.5-.5 13.9-.8 14.1-.6.7-56.7.3-57.8-.3-.5-.3-.7-6.1-.4-13.2.3-7 .5-13.2.6-13.9 0-.6.7-1.3 1.7-1.5 2.2-.4 54.5.2 55.9.7zm39.2.3l15.2.2v29h-19.9c-10.9 0-21.9-.3-24.5-.6l-4.6-.7v-13.8c0-12.3.2-13.8 1.7-14.1 1.8-.3 5.6-.3 32.1 0zm48 14.9l.3 14.3H816v-29.1l14.3.3 14.2.3.3 14.2zm29.1-13.1c.4.3.3 26.6-.1 27-.2.1-5.9.4-12.8.5l-12.5.2-.3-14.7-.3-14.8 12.8.7c7.1.4 13 .9 13.2 1.1zm-782.4.9c8.5.6 29.6 5.5 35 8.2 2.2 1.1 6.9 2.8 10.5 3.7 15.3 4.3 19.5 5.9 21.7 8.5 2.7 3.2 2.9 4.6.6 3.6-4.1-1.6-54.6-13.3-69.3-16-4.7-.9-12.5-2.3-17.5-3.1-9.9-1.8-11.5-2.5-9.5-4.9 1.3-1.5 5.8-1.5 28.5 0zm815.7 2.2c.3 2.1.3 8.6 0 14.4l-.5 10.6-14.6-.1-14.5-.1-.3-14.3-.2-14.2H906.8l.4 3.7zm18.8-2.4c0 .7-1.9 7.1-4.3 14.2l-4.4 13-3.5.3-3.5.3.1-14.5.1-14.6h7.8c5.6 0 7.7.3 7.7 1.3zm-595 16.5c0 1-.7.9-2.9-.3-1.7-.8-3.2-1.1-3.5-.6-.5.8-4.6 2.3-4.6 1.6 0-.2 1.9-1.7 4.2-3.4l4.2-3.1 1.3 2.2c.7 1.3 1.2 2.9 1.3 3.6zm-236.5-2.9c16.3 2.8 57.3 13.6 56.2 14.8-.3.2-3.8-.5-7.9-1.6-4-1.1-11.3-2.9-16.3-4-20.8-4.5-36.3-8.1-41-9.6-4.9-1.5-4.9-1.5-1-1.1 2.2.3 6.7.9 10 1.5zm-19.2 2c4.5 1.1 14.5 3.4 22.2 5.1 22.2 5.1 50.4 12 58.1 14.2 7 2.1 7.1 2.1 8.3 6.5.6 2.5 4.1 9.8 7.6 16.3 7 12.7 6.8 12.5 16.5 13.8 6.2.8 22.9.7 26.5-.2l3-.7-3 1.9c-1.6 1.1-3.9 2.9-5 4.1-2.9 3.3-10.6 8.7-13.3 9.4-4.2 1-8-1.4-14.7-9.1-10.8-12.4-25-23.4-40.1-31-8.5-4.3-29.8-11.1-36.8-11.9-6.5-.7-5.6-1.6 2.8-2.8 2.7-.4 4.3-1.1 3.9-1.7-.8-1.4-13-.4-20.9 1.7-5.8 1.5-6.3 1.5-11.3-.5-6.1-2.4-14.2-7.4-19.6-12.1l-3.9-3.4 5.5-.6c3-.3 5.5-.6 5.7-.7.1-.1 4 .7 8.5 1.7zm491 12.8l13.7.6V672c0 19.9-.1 21.8-1.7 22.2-1 .2-13.4.2-27.5 0l-25.8-.4V649h13.8c7.7 0 20 .3 27.5.7zm72.2.9l6.1.5-.1 18.2c-.1 10-.3 19.9-.3 21.9l-.2 3.8h-19.8c-11 0-24.7-.3-30.6-.7l-10.6-.6.2-21.1c.2-11.6.6-21.6 1-22.1.6-1 43-1 54.3.1zm43.3.4h13.3l-.4 21.5c-.1 11.8-.5 21.6-.8 21.9-.5.5-15.1.9-32 .7l-13.5-.1.1-17.8c.1-9.7.3-19.6.3-21.9l.2-4.2 6.3-.4c3.4-.2 7.8-.2 9.7-.1 1.9.2 9.5.4 16.8.4zm65.4.7l11.8.6-.3 21.6-.2 21.6h-59l-.3-22.3-.2-22.3 18.2.1c10.1.1 23.6.4 30 .7zm64.8 23.1v22.4l-2.2-.6c-1.3-.3-12.3-.6-24.5-.6H763v-44.1l24.5.3 24.5.2v22.4zm32.4-5c-.1 9.2-.2 19.1-.3 22l-.1 5.2-14-.2-14-.3v-44l14.3.3 14.3.3-.2 16.7zm29.7-15.1v15.8c0 7.7-.1 16.8-.1 20.2v6.3h-26v-44h13c11.7 0 13 .2 13.1 1.7zm33.2 9.3l-.2 10.4-5.5 11.2-5.4 11.2-5.4.4c-2.9.1-7.2.2-9.5 0l-4.3-.3v-44.1l15.3.4 15.2.3-.2 10.5zm6.6-7.8c-.6 1.2-1.5 3.3-2 4.7-.6 2.1-.7 1.7-.8-2.2-.1-4.1.2-4.7 1.9-4.7 1.8 0 1.9.3.9 2.2zm-808.2 6.5c10.6 3.5 11.3 3.8 11.9 6.7.4 1.7 2.6 7.1 5 12.1 2.8 5.5 4.2 9.6 3.8 10.8-.5 1.7-1.1 1.4-5.1-2.4-6.1-6-10.3-12.2-10.3-15.4 0-2.7-3.1-4.8-3.8-2.7-.5 1.5-3.1 4.2-4 4.2-.4 0-5.9-3.7-12.1-8.2-9.6-6.8-11.2-8.3-9.5-8.9 3.5-1.3 12.7.1 24.1 3.8zm87.3-.5c1.9.6 5 1.7 6.8 2.4 1.8.8 4.2 1.4 5.2 1.4 1.1 0 2 .5 2 1.1 0 .7-.9.9-2.2.6-1.3-.3-6.8-.7-12.3-.8-5.4-.2-9.4-.4-8.7-.7 1.6-.5 1.5-3.4 0-5.1-1.1-1.1-.7-1.2 2.2-.6 1.9.4 5.1 1.1 7 1.7zm296 3.9c-1.9 1.2-3.7 2.6-3.8 3.1-.2.5-1.5 2.2-2.9 3.8l-2.5 3 2.9.1c1.7.1.9.5-2.2.9-7.6 1.2-63.5 1.2-63.5 0 0-.6 1.1-1 2.4-1 2.9 0 17.8-5.1 26.1-9 5.9-2.8 6.2-2.8 26.5-2.9l20.5-.1-3.5 2.1zm-282 7.3c22 .8 31.7 1.7 40.8 4 3.1.8 8.9 1.9 12.7 2.5 39.5 5.8 50.1 6.6 77.8 5.7 12.8-.4 25.9-1 29.2-1.3 7.9-.8 16.2-.8 85 0 31.9.3 60.1.9 62.8 1.3l4.7.6v14.6l-5.7-2.4c-11.7-4.6-31-5.5-41.8-1.9-10.5 3.6-13.2 7.5-16.4 23.4-3 14.9-6.3 20.1-12.9 20.1-7.4 0-11.6-4.5-21.6-23-8.7-16-14.5-21-27.2-23.1-6.1-1.1-8.1-1-14 .4-9.5 2.4-18.7 7.1-22.6 11.6-1.8 2.2-6.1 8.7-9.6 14.5-8.2 13.7-16.1 21.6-21.9 21.6-3.5 0-8.1-5.6-13.5-16.4-9.5-19-18.6-29.2-32.7-36.5-9.6-4.9-15.3-6.6-26.4-8.1-10-1.4-15.5-.9-31.7 2.7-8.7 2-14.3 2.6-23 2.7-17.4 0-17.8-.2-22.2-8.2l-3.6-6.8 6.6.7c3.7.4 15.9 1 27.2 1.3zm-103.6 6.9c6.4.2 6.4.2 9.1 4.4 4 6.3 11.1 12.2 15.7 12.9 3.1.5 4.4 1.5 7.5 5.8 2 2.8 4.7 6.5 6 8.3l2.4 3.2-5.8-.6c-3.2-.3-6.4-1-7.1-1.6-.7-.5-2.6-3.5-4.3-6.7-2.7-5.1-6.8-8.8-8.2-7.4-.3.3 0 2 .6 3.9.8 2.8.7 3.9-.7 6.1l-1.8 2.6-3.4-3.3c-3.9-3.8-8.2-12.2-8.8-17-.3-3.5-3-6.1-5.3-5.2-1.4.5-9.3-6.1-9.3-7.9 0-.4 1.6 0 3.5.8s6.3 1.5 9.9 1.7zm162.9 10.8c7.7 2.5 17.7 7.3 17.7 8.5 0 .2-1.7-.4-3.7-1.4-3.5-1.8-14.3-5.4-23.8-8.1-2.2-.6-5.6-1.5-7.5-2.1-2.9-.8-2.4-.8 2.5-.3 3.3.3 10 1.8 14.8 3.4zm-19.4 3.5c1.7.4 3.1 1 3.1 1.4 0 1-18.8 13.4-22.5 14.8-1.6.6-4.7 1.4-6.7 1.8l-3.8.6v6.3c0 6.2 0 6.3-3.1 6.9-9.5 1.9-24.1-1.2-32.8-6.9-3.8-2.6-3.8-2.6-3-7.5.4-2.8 1-5.4 1.4-6 .3-.5 2.6.6 5.1 2.5 3.9 3 9.7 5.5 12.9 5.5.6 0 3.4-1.6 6.4-3.5 4.5-3 6.1-3.5 11-3.5 6.9 0 15.7-4 21.1-9.5 3.4-3.5 5.2-4 10.9-2.9zm332.6 42.9v39l-20-.2c-11-.2-23.3-.3-27.2-.3H525v-38.8c0-21.4.2-39.1.4-39.3.2-.2 12.5-.2 27.3.1l26.8.5v39zm64.4-37.9c.3.3.4 41.6.2 70.7l-.1 6.8-30.5-.2-30.5-.2V738c0-21.2.2-38.9.5-39.2.6-.6 59.7.2 60.4.8zm48.2.1l2.6.5-.3 33.1c-.1 18.3-.2 35.7-.3 38.7l-.1 5.5h-11.8c-6.4-.1-16.8-.2-22.9-.3L648 777v-38.3c0-21.1.3-38.7.7-39.1.8-.8 38.8-.7 43.4.1zm-472.4.9c-.3.3-1.2.4-1.9.1-.8-.3-.5-.6.6-.6 1.1-.1 1.7.2 1.3.5zm535.1.3l3.2.1v77l-24.7-.5c-13.7-.2-26.8-.4-29.3-.5h-4.5l.2-27.8c0-15.2.2-32.6.2-38.5l.1-10.8 25.8.5c14.1.2 27.2.5 29 .5zm55 .1h2.2v77.6l-18.2-.2c-10.1-.1-21.1-.3-24.5-.3l-6.3-.1v-77.9l22.3.4c12.2.3 23.2.5 24.5.5zm-411.4 1.7c1 .5-1.3.7-5.6.5-8.3-.5-16.3 1.1-23 4.4-5.3 2.7-6.3 2.6-2.2-.1 5.9-3.8 15.6-6.4 22.6-6 3.7.2 7.4.7 8.2 1.2zm445.6.5c.1 1.3.1 17.7.1 36.5 0 30.2-.2 34.6-1.7 36.8-1.6 2.5-1.8 2.5-14 2.3l-12.4-.3V701h14c13.8 0 14 0 14 2.2zm30 14.6v16.3l-4.2 6.2c-6.4 9.5-21 28.9-21.4 28.4-.4-.3-.6-27.2-.4-57.7v-9.5h26v16.3zm17.3-12.5c-1.1 1.8-4.6 7.9-7.8 13.6l-6 10.3-.3-12.8c-.1-7-.1-13.3.1-13.8.3-.7 3.4-1 8.1-.8l7.7.4-1.8 3.1zM488.5 703c-1.1.5-2.9.9-4 .9-3.1.2-13.6 5.9-17.2 9.3-3.7 3.5-3.9 3.3-1.9-1.7 1.8-4.2 4.6-6.1 12.1-7.9 6.8-1.6 14.4-2.1 11-.6zm-360.1 9.7c2.3 3 7.3 5.3 11.6 5.3 5.2 0 9.2 2.4 16.2 9.6 5.3 5.4 7.5 8.7 10.4 15.4 3.5 7.9 3.8 9.4 4.2 20.5.3 9.4.9 12.9 2.5 16 3.8 7.5 6.9 11.4 12.1 14.9 11.5 8 15.2 2.4 9.5-14.3-2.6-7.4-2.4-10.7.7-13.7 2.8-2.9 1.7-2.9 18.4.1 11.8 2 20.7 6.1 43.4 19.7 17.6 10.6 19.6 12.5 21.7 20.3.9 3.3.7 5.5-1.6 14.2-3.4 12.8-3.1 20.4 1 28.9 2.5 5.1 7.1 9.4 10.1 9.4 2.3 0 4.6-2.8 5.4-6.7.8-3.2.5-5.7-1.2-11.9-4.4-15.7-1.7-21.6 13.6-29.3 7.5-3.8 9.1-4.3 12.8-3.7 6 1 15.5 6 20.6 10.9l4.4 4.2-.6 6.4c-.3 4.1-1.7 8.8-3.6 12.9-3.2 6.8-6 16.4-6 20.4 0 4.5 5.9 14.7 10 17.4 10.9 7.2 17.8-2.9 13.5-19.7-1.9-7.2-.8-13.2 3.6-20.1 4.6-7.2 9.2-10.8 13.7-10.8 4.7 0 12.6 3.7 19.3 9 6.4 5 14 9 17.1 9 3.6-.1 5.8-2.3 12.8-12.8 4.9-7.3 7.7-10.4 11.3-12.6 8-4.9 15.3-3.6 20 3.6 3 4.7 3.3 8 1.6 19-2.2 14.2 3.7 29.8 11.2 29.8 8.4 0 14.9-15.3 12.7-30.1-.6-3.4-.7-7.7-.3-9.5 1.3-7.3 9.6-13.1 19.4-13.6 4.1-.3 4.6 0 6.4 3.1 3.2 5.2 3.6 11.1 2.5 30.6-1.7 27.4.9 43.6 8.3 52 2.9 3.3 3 3.6 2.7 12.7l-.3 9.3-4 .7c-2.2.4-11.6.7-21 .7-49.8.2-122.1-15.7-175-38.4-16.9-7.3-31.7-14.5-38-18.4-3.3-2.1-10.5-6.5-16-9.7-18.2-10.7-40.1-27.2-64.6-48.7-33.1-29.1-50.2-49.9-71.9-87.7-7-12.2-7.9-14.4-6-15.5.6-.3 1-1.6 1.1-2.8 0-2.1.1-2.1 1.2-.3.7 1 2.1 2.9 3.1 4.3zm362.6 3.5c-13.2 16-30.2 31.3-40.7 36.7-6.5 3.2-14.9 5.1-23.4 5.1-13.6 0-34.1-6-44.4-13-2.2-1.5-6.9-4.3-10.4-6.4-3.4-2-8.7-5.6-11.7-8-6.3-5.2-6.4-4.9 6.6-12 7.9-4.4 8.5-4.6 9.7-2.9 4.1 6 8.5 8 14 6.4 2.9-.8 3.2-.7 4.3 1.9 1.9 4.5 5.4 6.3 10.7 5.5 4.3-.6 4.6-.5 9.3 3.9 4.3 4 6.8 5.3 8.5 4.3.2-.1 2.1 1.4 4.2 3.4 4.6 4.2 8.7 6.9 10.8 6.9.8 0 1.5.4 1.5.8 0 1.1 7.8-.1 10.5-1.5 3.5-1.9 6.3-5.7 9.4-12.4 3-6.7 8-12.1 16.3-17.6 3.1-2.1 16.4-7.1 19.1-7.3.5 0-1.5 2.8-4.3 6.2zm-86.4-3.1l8.5 2.2 4 8 4 7.9-5-4.2c-4.9-4.1-5.3-4.3-10.1-3.7-5.1.6-5.2.6-6.5-2.7-2.4-5.6-5.1-6.6-11.6-4.1-2.2.8-7.6-3.5-5.7-4.6 2.4-1.6 13.8-.9 22.4 1.2zM297.7 718c4.6 3.7 7.1 6.8 10.2 12.6 2.3 4.3 5.6 9.5 7.2 11.6 1.7 2.1 2.6 3.8 2 3.8-3.5 0-17.6 6.7-23.6 11.2-3.9 3-7.8 5.2-8.7 5-2.7-.5-16.3-19.2-15.2-20.7.5-.7 3.9-4.7 7.5-8.8 3.6-4.2 8-10.4 9.8-13.7 1.8-3.3 3.5-6 3.9-6 .4 0 3.5 2.2 6.9 5zm222.5 24.1l-.4 13-2.6 1.1c-6 2.4-22 .8-26.7-2.6-1.8-1.3-1.7-1.6 2.4-6.2 9.7-11 24.1-28.5 25.3-30.6 1.2-2.1 1.3-1.6 1.8 4.9.3 4 .4 13.2.2 20.4zm-334.3-14.2c4.6 2.4 20.1 6.1 25.7 6.1h3.1l-1.4 5.2c-.8 2.9-1.7 6.4-2 7.8-1.4 7.8-.9 7.3-6.6 6.7-3-.4-8.6-2.3-13.2-4.6l-8-4-2.2-7.3c-1.2-4-2.5-8.8-2.8-10.5-.7-3.7-.6-3.7 7.4.6zm-11.1 15.7l4.7 3.6-3.3-.4c-2.4-.2-3.8-1.1-5.3-3.6-2.7-4.1-1.9-4 3.9.4zm169.3 1.1c1.2 1.5 1.2 1.6-.4 1-1-.4-2.5-.7-3.3-.7-.8 0-1.4-.5-1.4-1 0-1.6 3.6-1.1 5.1.7zM272.4 757c9.2 9.2 15.1 12.6 18.1 10.4 16.8-12.3 29.5-17.1 43.5-16.1 11.9.9 16 2.8 24.9 11.8l7.8 7.8-4.4 3.3c-2.5 1.8-6.5 5.7-9 8.6l-4.6 5.3-3.7-3.6c-5.3-5.2-9.9-6.2-15.6-3.4-4 1.9-9.6 7.7-13 13.4-.9 1.6-1.4 1.2-4.2-3.3-1.8-2.9-3.2-5.9-3.2-6.7 0-1.8.8-1.6-11-1.9-6-.2-11.7-1-15.5-2.2-5.7-1.9-6-2.2-7.8-6.9-1.1-2.8-2.4-7.6-3.1-10.8-.7-3.2-1.6-5.9-2.1-6-2.4-.5-1.6 10.4 1.3 18.8 1.9 5.4 2.5 8.5 1.8 8.5-.6 0-4-1.7-7.5-3.8-7.1-4.2-16.1-14-16.1-17.7 0-5.7 1.3-8.6 4.4-9.9 1.7-.8 4-2.1 5.1-3 1.1-.8 2.6-1.6 3.4-1.6.8 0 5.5 4.1 10.5 9zm-79.4-2c11.3 4.3 15.5 5.2 27 5.6 5.8.2 11.9.8 13.5 1.3 1.7.5 4.7 1.2 6.7 1.5 2.9.5 4.1 1.5 6.1 4.9 1.4 2.3 4.4 6.4 6.8 9l4.2 4.9-6.4-3.9c-7.6-4.6-24-12.6-28.9-14.1-4.5-1.4-17.8-3.2-23.4-3.2-6.5 0-9.6 2.9-9.6 8.9 0 2.6.9 7.4 2 10.6 2.1 6.2 2.6 12 1.1 12.9-1.3.9-6.2-1.2-8.9-3.7-1.3-1.2-3.6-4.2-5-6.7-2.5-4.2-2.7-5.4-2.8-16.5 0-6.6-.3-12.7-.8-13.6-1.1-2.5 9.5-1.3 18.4 2.1zm51 3.5c0 1.6-1.2 1.8-5 .8l-2.5-.7 2.5-.7c4-1.1 5-1 5 .6zm131.5 6.6c.5.5-.1.9-1.6.9-2.8 0-10.9-5.3-10.9-7.1 0-1 10.2 4.1 12.5 6.2zm109.3-3.2c4.6 4.6 12.5 6.5 24.9 5.8l10.3-.5v21.9c0 12-.2 21.9-.6 21.9-.3 0-2.2-.9-4.2-2s-6.4-3-9.6-4.1c-3.3-1.2-7.4-3.6-9.3-5.3-2.9-2.7-3.6-4.3-5.2-12.6-1.1-5.2-2.5-10.9-3.1-12.5-1.5-3.9-5.4-8-9.2-9.6l-3-1.2 2.9-2.3c1.5-1.3 2.9-2.3 3-2.4.1 0 1.5 1.3 3.1 2.9zm-80.1 1.7c-.3.3-1.2.4-1.9.1-.8-.3-.5-.6.6-.6 1.1-.1 1.7.2 1.3.5zm44.9 1.8c-.1 2.2-.8 2.6-6.1 3.6-14.5 2.8-35.3 2.1-30.5-1.1 1.3-.8 1.3-1 0-1.9-1.1-.8-.4-.9 2.5-.3 6.7 1.3 24.6.6 28.5-1.1 4.8-2.1 5.8-2 5.6.8zm-59.9 5.8c2.9 1.2 5.3 2.5 5.3 2.9 0 .8-6 5.3-6.3 4.8-.1-.2-1.7-2.3-3.5-4.6-1.7-2.3-3.2-4.4-3.2-4.7 0-1.1 2.5-.6 7.7 1.6zm86.8.6c1.3.4-.1.9-4 1.3-3.3.4-7.6 1-9.5 1.4-3 .7-3.3.5-2.2-.6 3.1-3.3 9.3-4.2 15.7-2.1zm-96.6 5.6c1 1.2.3 1.5-4.1 2.1-2.9.4-6.8 1.3-8.7 2.1-4.3 1.8-4.6 1.8-3-.3 4-4.7 13.2-7 15.8-3.9zm33.1.7c9.4 1.4 23.4 1.2 31.3-.4 3.7-.8 6.7-1.1 6.7-.7 0 1-8.5 13.7-12.7 18.8-3.2 3.9-3.8 4.2-6.7 3.6-4.5-1-12-4.9-16.1-8.6-5.2-4.5-13.4-15.4-10.9-14.4 1 .4 4.8 1.2 8.4 1.7zm-11.2 5.1c3.9 8.7 12.2 16.6 22.5 21.3 9.9 4.6 14.3 2.9 23.7-9.4 6.2-8.1 7.7-8.9 22.9-12.7 5.9-1.4 7.6-1.5 10.1-.4 3.1 1.3 3.5 2.1 4.4 10.3 1 8.4 5.9 15.3 13.6 19.2l3.5 1.8-6.1 1.3c-7.9 1.6-11.2 3.3-15.6 8.2-5 5.6-6.2 9.8-5.2 19 .4 4.3.6 8.8.5 10.2-.4 5.1-3.3 12-5.8 14-2.5 1.9-2.7 1.9-4.5.3-1-.9-2.6-4.1-3.5-7.2-1.4-4.9-1.4-6.9-.3-16.6 1.6-13.5.8-16.5-5.5-22.9-10.9-10.8-24.3-6.6-35.6 11.2-5.7 9-7.8 11.2-10.5 11.2-2.9 0-8.4-3-14.7-8.1-6.1-4.8-16.7-9.9-20.8-9.9-5.3 0-9.8 3-15 9.8-7.2 9.6-8.9 17.8-5.7 28.7 2 6.8.5 13.5-3.3 14.9-2.1.7-3.3.5-5.7-1.3-3.4-2.4-7.2-9.4-7.2-13.3 0-3.1 2.7-11.7 6.6-20.8 2-4.7 2.7-8.3 2.8-13 .1-6-.2-6.8-3.4-10.8-4.2-5.3-13.7-11.7-20.7-13.9-2.9-.9-5.3-2.1-5.3-2.7 0-.6 2.9-4.1 6.5-7.9 5.9-6.1 6.8-6.7 10.5-6.7 3.6 0 4.6.6 8.2 4.5 2.2 2.4 4.9 4.7 5.9 5 .9.3 6.6-1.1 12.6-3.1 7.5-2.5 13.3-3.8 19-4.1 8.1-.6 8.2-.6 13.2-5.4 2.9-2.7 5.3-4.9 5.6-4.9.2 0 1.3 1.9 2.3 4.2zm177.7-2.3c0 .1-.1 11.7-.2 25.9-.1 14.1-.2 31.8-.3 39.2v13.6l-19.2-.2c-10.6-.1-22.8-.2-27-.3l-7.8-.1V779.7l27.3.6c14.9.3 27.2.6 27.2.6zm53.3.1H644v48l-4.2-2.7c-5.2-3.3-12.2-8.4-16.3-11.8-1.6-1.3-7.9-6.4-13.8-11.2-6-4.8-12.2-9.9-13.7-11.1-5.4-4.5-7.1.9-1.8 5.5 7.7 6.7 23 22.9 25.4 26.9 5.4 9.1 8.8 16.5 11.7 25.2l3.4 10.2H583v-79.8l19.3.4c10.5.2 24.3.4 30.5.4zm61.3 1.9c.1.9.1 14.2 0 29.6l-.1 28-5.6.3c-7 .4-22.9-2.8-32.5-6.5l-7.4-2.9-.3-25.2-.2-25.2 23 .1c20.5.1 23 .3 23.1 1.8zm63.4 35.1v35.4l-5.4 3.8-5.4 3.8h-11.4c-10.5 0-12.5-.5-10.5-2.4.4-.4.7-1.1.7-1.4.1-.4 1.1-2.9 2.3-5.6 1.2-2.7 2.2-5.3 2.2-5.7 0-.5 1.7-2.8 3.8-5.2 2.1-2.3 4.8-5.5 6-7.1 4.7-6.1-.7-6.2-13.9-.1-9.3 4.3-14.9 6-23.1 7.2l-3.8.5v-59.3l29.3.3 29.2.3V818zm49.3-35h5.2V809.7l-10.7 9.4c-15.6 13.6-37.1 30.9-38.5 30.9-.2 0-.1-34.1.2-64.7v-3.2l19.3.4c10.5.2 21.6.4 24.5.5zm28.5 1.4c-.4.7-5 5.7-10 11.1l-9.3 9.7V783h10c8.3 0 10 .2 9.3 1.4zm-544.8 4.3c3.4.8 8 1.3 10.6 1l4.6-.6 2.3 5c1.3 2.7 3 5.5 3.7 6.1 2.2 1.8 1.5 2.6-5.4 5.9-17.5 8.3-22.3 17.3-17.3 32.3 2.4 7.1 2.6 12.9.5 15-3.8 3.8-9.8-3.7-11.1-14-.5-4.4-.1-7.6 2-15.3 1.4-5.4 2.6-11.5 2.6-13.6 0-5.6-3.4-11.8-9.3-17-4.8-4.2-4.9-4.5-2-3.5 1.7.7 4.4 1 6 .8 2.2-.2 2.8-.8 2.7-2.6-.1-1.9.3-2.2 2-1.7 1.2.4 4.8 1.3 8.1 2.2zm222.1 28.8c2.6 1.4 5.3 2.5 6 2.5 1.2 0 1.4 7 1.4 39.6 0 25.4-.3 39.3-1 38.9-.5-.3-1.7-2.9-2.7-5.8-1.5-4.5-1.7-9.4-1.8-35.7 0-32.9-.1-33.5-5.8-39.8-2.6-2.8-1.9-2.8 3.9.3zm133.9 22.4c4.4 2.1 12.7 5.1 18.5 6.7 9.4 2.6 12.1 2.8 26.5 2.9 14 0 16.9-.3 23.4-2.3 4-1.3 7.5-2.1 7.8-1.8.2.2-.7 3.6-2.1 7.4-7.8 21.7-7.3 46.3 1.5 73 1.1 3.4 1.9 6.6 1.7 7.1-.2.5-3.2-.9-6.8-3-8.2-5-14.4-6.9-24.5-7.6-15.3-1-41.4 4.4-54.4 11.3-3.6 1.8-6.6 3.2-6.9 3-.2-.2.8-3.5 2.1-7.3 3.3-9.1 6.3-23.4 7.7-36.3 1.9-17.6-1.3-38.5-8.1-53.9-1.6-3.5-2.9-6.8-2.9-7.3 0-.6 1.9.2 4.3 1.7 2.3 1.4 7.8 4.3 12.2 6.4zm-67.2 50.3c-.1 14.5-.3 28.4-.3 30.9v4.6l-11.3 1.7c-18.5 2.7-42.1 5.5-42.7 5-.2-.3-.5-15.8-.5-34.5l-.1-33.9h55.1l-.2 26.2zm56.1-24.2c.9.9 1 22.7.1 31.5-.3 2.7-1 7.3-1.6 10.2-1.2 5-1.4 5.3-5.8 6.7-8.5 2.7-15.5 4.5-28.1 7-6.9 1.4-13.5 2.8-14.7 3.1l-2.3.5v-60.5l25.7.3c14.2.2 26.2.7 26.7 1.2zm100.6.8c0 .8-.7 1.2-9.1 6l-5.6 3.2 1-5 1-5h6.3c3.5 0 6.4.3 6.4.8z"/><path d="M458.5 454c.3.5 1.2.7 2 .3 2.1-.7 1.9-1.3-.6-1.3-1.1 0-1.8.4-1.4 1z"/></svg>